<svg width="179" height="23" viewBox="0 0 179 23" fill="none" xmlns="http://www.w3.org/2000/svg">
<path d="M166.469 6.14551C166.883 6.14551 167.195 6.29183 167.407 6.58447C167.629 6.86702 167.74 7.20003 167.74 7.5835V8.97607C168.537 8.23942 169.415 7.5835 170.374 7.0083C171.333 6.43311 172.281 6.14551 173.22 6.14551C174.199 6.14551 175.011 6.3877 175.657 6.87207C176.303 7.35645 176.787 7.98714 177.11 8.76416C177.443 9.54118 177.609 10.3787 177.609 11.2769V17.5737C177.609 17.8563 177.62 18.1338 177.64 18.4062C177.67 18.6787 177.781 18.936 177.973 19.1782C178.205 19.4709 178.407 19.6979 178.578 19.8594C178.76 20.0208 178.851 20.3185 178.851 20.7524C178.851 21.1965 178.714 21.5396 178.442 21.7817C178.169 22.0138 177.816 22.1299 177.382 22.1299H171.055C170.631 22.1299 170.303 22.0037 170.071 21.7515C169.849 21.4992 169.738 21.1662 169.738 20.7524C169.738 20.369 169.824 20.0713 169.996 19.8594C170.177 19.6374 170.354 19.4103 170.525 19.1782C170.707 18.936 170.798 18.598 170.798 18.1641V12.9116C170.798 12.4373 170.702 11.9731 170.51 11.519C170.329 11.0649 169.945 10.8379 169.36 10.8379C169.007 10.8379 168.704 10.9085 168.452 11.0498C168.199 11.181 167.962 11.3525 167.74 11.5645V17.7554C167.74 18.0278 167.75 18.3053 167.771 18.5879C167.791 18.8604 167.892 19.1126 168.073 19.3447C168.285 19.597 168.462 19.8039 168.603 19.9653C168.744 20.1167 168.815 20.3791 168.815 20.7524C168.815 21.1662 168.699 21.4992 168.467 21.7515C168.245 22.0037 167.922 22.1299 167.498 22.1299H161.171C160.737 22.1299 160.384 22.0138 160.111 21.7817C159.839 21.5396 159.703 21.1965 159.703 20.7524C159.703 20.4194 159.763 20.1621 159.884 19.9805C160.016 19.7887 160.162 19.6121 160.323 19.4507C160.485 19.2892 160.626 19.0924 160.747 18.8604C160.878 18.6283 160.944 18.3104 160.944 17.9067V12.291C160.944 11.8369 160.873 11.4938 160.732 11.2617C160.591 11.0296 160.424 10.848 160.232 10.7168C160.041 10.5755 159.874 10.4242 159.733 10.2627C159.592 10.1012 159.521 9.85905 159.521 9.53613C159.521 9.14258 159.652 8.8348 159.915 8.61279C160.177 8.3807 160.47 8.19906 160.793 8.06787L164.062 6.75098C164.446 6.58952 164.834 6.44824 165.228 6.32715C165.631 6.20605 166.045 6.14551 166.469 6.14551Z" fill="#252847"/>
<path d="M149.826 6.14551C151.491 6.14551 152.949 6.48861 154.2 7.1748C155.462 7.861 156.445 8.82471 157.152 10.0659C157.858 11.3071 158.211 12.7653 158.211 14.4404C158.211 16.0853 157.823 17.5182 157.046 18.7393C156.269 19.9502 155.224 20.8937 153.913 21.5698C152.611 22.2358 151.163 22.5688 149.568 22.5688C147.893 22.5688 146.425 22.2257 145.164 21.5396C143.902 20.8433 142.918 19.8695 142.212 18.6182C141.516 17.3568 141.167 15.8885 141.167 14.2134C141.167 12.5786 141.561 11.1558 142.348 9.94482C143.135 8.73389 144.185 7.80046 145.497 7.14453C146.808 6.47852 148.251 6.14551 149.826 6.14551ZM150.688 19.2236C150.941 19.2236 151.117 19.0924 151.218 18.8301C151.329 18.5677 151.4 18.2801 151.43 17.9673C151.46 17.6444 151.476 17.3971 151.476 17.2256C151.476 16.6504 151.43 16.0802 151.339 15.5151C151.249 14.9399 151.132 14.3748 150.991 13.8198C150.941 13.5978 150.845 13.2547 150.704 12.7905C150.562 12.3162 150.391 11.8218 150.189 11.3071C149.987 10.7925 149.765 10.3535 149.523 9.99023C149.281 9.62695 149.023 9.44531 148.751 9.44531C148.519 9.44531 148.347 9.5765 148.236 9.83887C148.135 10.1012 148.07 10.3939 148.04 10.7168C148.009 11.0296 147.994 11.2668 147.994 11.4282C147.994 11.7007 148.035 12.1396 148.115 12.7451C148.196 13.3405 148.312 14.0065 148.463 14.7432C148.625 15.4798 148.817 16.1912 149.039 16.8774C149.261 17.5535 149.508 18.1136 149.78 18.5576C150.063 19.0016 150.366 19.2236 150.688 19.2236Z" fill="#252847"/>
<path d="M137.391 6.14551C137.804 6.14551 138.122 6.28678 138.344 6.56934C138.576 6.85189 138.692 7.18994 138.692 7.5835V17.5737C138.692 17.8563 138.702 18.1439 138.723 18.4365C138.753 18.7191 138.869 18.9663 139.071 19.1782C139.333 19.4608 139.55 19.6828 139.722 19.8442C139.903 20.0057 139.994 20.3084 139.994 20.7524C139.994 21.1965 139.853 21.5396 139.57 21.7817C139.298 22.0138 138.945 22.1299 138.511 22.1299H132.078C131.644 22.1299 131.285 22.0138 131.003 21.7817C130.73 21.5496 130.594 21.2065 130.594 20.7524C130.594 20.3185 130.68 20.0158 130.852 19.8442C131.023 19.6626 131.245 19.4406 131.518 19.1782C131.719 18.9764 131.83 18.7241 131.851 18.4214C131.881 18.1187 131.896 17.8361 131.896 17.5737V12.291C131.896 12.0892 131.881 11.8823 131.851 11.6704C131.82 11.4484 131.734 11.2617 131.593 11.1104C131.553 11.0599 131.502 11.0195 131.442 10.9893C131.391 10.959 131.346 10.9237 131.306 10.8833C131.084 10.6512 130.877 10.4645 130.685 10.3232C130.503 10.1719 130.413 9.9095 130.413 9.53613C130.413 9.13249 130.539 8.81966 130.791 8.59766C131.043 8.37565 131.341 8.19906 131.684 8.06787L134.954 6.75098C135.337 6.59961 135.736 6.46338 136.149 6.34229C136.563 6.2111 136.977 6.14551 137.391 6.14551ZM135.12 6.08496C134.474 6.08496 133.823 5.9891 133.167 5.79736C132.511 5.60563 131.962 5.28776 131.518 4.84375C131.084 4.38965 130.867 3.77913 130.867 3.01221C130.867 2.24528 131.089 1.64486 131.533 1.21094C131.977 0.766927 132.527 0.454102 133.183 0.272461C133.838 0.0908203 134.484 0 135.12 0C135.756 0 136.402 0.0908203 137.058 0.272461C137.724 0.454102 138.279 0.766927 138.723 1.21094C139.177 1.64486 139.404 2.24528 139.404 3.01221C139.404 3.78923 139.182 4.40479 138.738 4.85889C138.294 5.3029 137.739 5.62077 137.073 5.8125C136.417 5.99414 135.766 6.08496 135.12 6.08496Z" fill="#252847"/>
<path d="M123.321 22.5688C121.595 22.5688 120.233 22.1702 119.234 21.373C118.245 20.5658 117.75 19.2539 117.75 17.4375V10.853C117.75 10.4191 117.654 10.0962 117.463 9.88428C117.271 9.67236 117.049 9.50081 116.797 9.36963C116.544 9.22835 116.322 9.06185 116.131 8.87012C115.939 8.66829 115.843 8.36556 115.843 7.96191C115.843 7.54818 115.989 7.22526 116.282 6.99316C116.575 6.75098 116.918 6.62988 117.311 6.62988H117.993C118.285 6.62988 118.573 6.48356 118.855 6.19092C119.148 5.88818 119.441 5.51481 119.733 5.0708C120.036 4.62679 120.349 4.18783 120.672 3.75391C121.005 3.3099 121.358 2.94157 121.731 2.64893C122.105 2.34619 122.513 2.19482 122.957 2.19482C123.462 2.19482 123.855 2.3361 124.138 2.61865C124.421 2.9012 124.562 3.29476 124.562 3.79932V6.62988H127.998C128.381 6.62988 128.709 6.7207 128.982 6.90234C129.254 7.08398 129.391 7.38672 129.391 7.81055C129.391 8.37565 129.209 8.80452 128.846 9.09717C128.492 9.38981 128.064 9.58659 127.559 9.6875C127.054 9.77832 126.58 9.82373 126.136 9.82373H124.562V15.8179C124.562 16.3123 124.658 16.7816 124.849 17.2256C125.041 17.6595 125.435 17.8765 126.03 17.8765C126.424 17.8765 126.757 17.7655 127.029 17.5435C127.312 17.3114 127.574 17.0843 127.816 16.8623C128.069 16.6403 128.336 16.5293 128.619 16.5293C128.881 16.5293 129.063 16.6554 129.163 16.9077C129.274 17.16 129.33 17.387 129.33 17.5889C129.33 18.6081 129.022 19.491 128.407 20.2378C127.791 20.9845 127.019 21.5597 126.091 21.9634C125.172 22.367 124.249 22.5688 123.321 22.5688Z" fill="#252847"/>
<path d="M98.8973 18.6484C98.8973 17.7201 99.1142 16.9481 99.5481 16.3325C99.9821 15.7069 100.547 15.2074 101.243 14.834C101.95 14.4505 102.712 14.1781 103.529 14.0166C104.346 13.8551 105.134 13.7744 105.89 13.7744C106.112 13.7744 106.339 13.7795 106.572 13.7896C106.804 13.7896 107.031 13.8097 107.253 13.8501V9.91455C107.253 9.66227 107.197 9.36963 107.086 9.03662C106.985 8.70361 106.773 8.53711 106.45 8.53711C106.138 8.53711 105.941 8.66829 105.86 8.93066C105.79 9.18294 105.754 9.42513 105.754 9.65723C105.754 9.75814 105.754 9.86409 105.754 9.9751C105.764 10.076 105.769 10.182 105.769 10.293C105.769 11.3324 105.411 12.064 104.695 12.4878C103.978 12.9015 103.161 13.1084 102.242 13.1084C101.476 13.1084 100.81 12.9368 100.244 12.5938C99.6793 12.2507 99.3968 11.6452 99.3968 10.7773C99.3968 10.4342 99.4624 10.1012 99.5936 9.77832C99.7348 9.4554 99.9114 9.16781 100.123 8.91553C100.739 8.16878 101.511 7.59863 102.439 7.20508C103.378 6.81152 104.362 6.54411 105.391 6.40283C106.43 6.25146 107.404 6.17578 108.312 6.17578C109.342 6.17578 110.285 6.3221 111.143 6.61475C112.001 6.90739 112.687 7.39681 113.201 8.08301C113.716 8.75911 113.973 9.67236 113.973 10.8228V17.8008C113.973 17.9723 114.014 18.1237 114.095 18.2549C114.175 18.3861 114.311 18.4517 114.503 18.4517C114.655 18.4517 114.781 18.4062 114.882 18.3154C114.993 18.2145 115.124 18.1641 115.275 18.1641C115.568 18.1641 115.785 18.265 115.926 18.4668C116.077 18.6686 116.153 18.9058 116.153 19.1782C116.153 19.8846 115.936 20.4951 115.502 21.0098C115.078 21.5143 114.549 21.8978 113.913 22.1602C113.277 22.4326 112.636 22.5688 111.991 22.5688C111.234 22.5688 110.467 22.4023 109.69 22.0693C108.923 21.7363 108.393 21.2166 108.1 20.5103C107.586 21.2267 106.879 21.7515 105.981 22.0845C105.093 22.4074 104.22 22.5688 103.363 22.5688C102.575 22.5688 101.839 22.4225 101.153 22.1299C100.477 21.8271 99.9316 21.3831 99.5179 20.7979C99.1041 20.2126 98.8973 19.4961 98.8973 18.6484ZM105.724 17.3164C105.724 17.7201 105.82 18.1035 106.012 18.4668C106.203 18.82 106.531 18.9966 106.995 18.9966C107.086 18.9966 107.172 18.9865 107.253 18.9663V15.833C107.081 15.7624 106.905 15.7271 106.723 15.7271C106.339 15.7271 106.077 15.9188 105.936 16.3022C105.795 16.6756 105.724 17.0137 105.724 17.3164Z" fill="#252847"/>
<path d="M97.8298 11.1104C97.8298 12.0589 97.4867 12.7804 96.8005 13.2749C96.1143 13.7694 95.3373 14.0166 94.4695 14.0166C93.5815 14.0166 92.87 13.7744 92.3352 13.29C91.8004 12.8057 91.533 12.1094 91.533 11.2012C91.533 10.7874 91.4774 10.3687 91.3664 9.94482C91.2655 9.521 90.9376 9.30908 90.3826 9.30908C89.9587 9.30908 89.6358 9.51595 89.4138 9.92969C89.1918 10.3434 89.0404 10.8076 88.9597 11.3223C88.8891 11.8369 88.8538 12.2507 88.8538 12.5635C88.8538 13.4313 88.995 14.2588 89.2776 15.0459C89.5601 15.833 90.0092 16.4738 90.6247 16.9683C91.2403 17.4526 92.0375 17.6948 93.0163 17.6948C93.5915 17.6948 94.1617 17.5586 94.7268 17.2861C95.2919 17.0036 95.7914 16.7261 96.2253 16.4536C96.6593 16.1812 96.962 16.0449 97.1335 16.0449C97.4464 16.0449 97.6532 16.1711 97.7541 16.4233C97.8551 16.6655 97.9055 16.9077 97.9055 17.1499C97.9055 18.0581 97.6886 18.8503 97.2546 19.5264C96.8308 20.2025 96.2657 20.7676 95.5593 21.2217C94.863 21.6657 94.1012 21.9987 93.2737 22.2207C92.4563 22.4528 91.654 22.5688 90.8669 22.5688C89.3533 22.5688 87.991 22.2459 86.78 21.6001C85.5792 20.9442 84.6256 20.0309 83.9192 18.8604C83.2229 17.6898 82.8747 16.3376 82.8747 14.8037C82.8747 13.1387 83.2128 11.6553 83.8889 10.3535C84.565 9.05176 85.5237 8.02751 86.7649 7.28076C88.0162 6.52393 89.4895 6.14551 91.1848 6.14551C91.9416 6.14551 92.7086 6.24137 93.4856 6.43311C94.2626 6.61475 94.9791 6.90739 95.635 7.31104C96.2909 7.70459 96.8207 8.21924 97.2244 8.85498C97.628 9.48063 97.8298 10.2324 97.8298 11.1104Z" fill="#252847"/>
<path d="M63.6432 22.4478H61.4181C60.742 22.4478 60.2072 22.2611 59.8137 21.8877C59.4302 21.5042 59.1123 21.0199 58.86 20.4346L54.6974 10.8682C54.5965 10.6159 54.4805 10.3737 54.3493 10.1416C54.2181 9.9095 54.0466 9.70264 53.8346 9.521C53.5723 9.2889 53.3301 9.07699 53.1081 8.88525C52.8962 8.68343 52.7902 8.38574 52.7902 7.99219C52.7902 7.5179 52.9365 7.1748 53.2292 6.96289C53.5319 6.74089 53.9002 6.62988 54.3342 6.62988H62.1598C63.068 6.62988 63.5221 7.07389 63.5221 7.96191C63.5221 8.3151 63.4313 8.59766 63.2497 8.80957C63.0781 9.02148 62.8713 9.19808 62.6291 9.33936C62.397 9.47054 62.1901 9.60677 62.0085 9.74805C61.8369 9.88932 61.7512 10.071 61.7512 10.293C61.7512 10.515 61.8016 10.7723 61.9025 11.0649C62.0135 11.3576 62.1094 11.6048 62.1901 11.8066L64.5212 17.7251L66.8825 11.8521L66.4889 10.8682C66.3578 10.5352 66.2165 10.2576 66.0651 10.0356C65.9137 9.80355 65.7018 9.57145 65.4294 9.33936C65.1771 9.11735 65.0005 8.92057 64.8996 8.74902C64.7987 8.56738 64.7482 8.30501 64.7482 7.96191C64.7482 7.07389 65.2023 6.62988 66.1105 6.62988H73.6486C74.0724 6.62988 74.3701 6.76107 74.5417 7.02344C74.7233 7.28581 74.8141 7.60872 74.8141 7.99219C74.8141 8.35547 74.7334 8.63802 74.572 8.83984C74.4105 9.03158 74.2238 9.19303 74.0119 9.32422C73.8 9.44531 73.6133 9.57145 73.4518 9.70264C73.2904 9.82373 73.2096 9.99528 73.2096 10.2173C73.2096 10.4595 73.25 10.6916 73.3307 10.9136C73.4216 11.1356 73.5073 11.3576 73.5881 11.5796L75.8737 17.7856L77.8415 12.1245C77.9222 11.9025 77.9878 11.6805 78.0383 11.4585C78.0988 11.2365 78.1291 11.0094 78.1291 10.7773C78.1291 10.4141 78.0282 10.1416 77.8263 9.95996C77.6346 9.76823 77.4076 9.60677 77.1452 9.47559C76.8828 9.33431 76.6507 9.15771 76.4489 8.9458C76.2572 8.73389 76.1613 8.41602 76.1613 7.99219C76.1613 7.60872 76.2622 7.28581 76.464 7.02344C76.6659 6.76107 76.9686 6.62988 77.3722 6.62988H82.0495C82.4834 6.62988 82.8467 6.74089 83.1393 6.96289C83.432 7.1849 83.5783 7.52799 83.5783 7.99219C83.5783 8.35547 83.5127 8.61784 83.3815 8.7793C83.2604 8.94075 83.0687 9.12744 82.8063 9.33936C82.3421 9.71273 82.0142 10.0811 81.8224 10.4443C81.6307 10.7975 81.4289 11.2415 81.217 11.7764L77.7355 20.6162C77.2612 21.8372 76.3985 22.4478 75.1471 22.4478H72.9372C72.2712 22.4478 71.7363 22.256 71.3327 21.8726C70.9391 21.4891 70.6263 21.0098 70.3942 20.4346L68.4416 15.6514L66.2165 20.6162C65.9642 21.1712 65.6312 21.6152 65.2175 21.9482C64.8037 22.2812 64.279 22.4478 63.6432 22.4478Z" fill="#252847"/>
<path d="M52.7369 12.1245C52.7369 13.0226 52.4695 13.7038 51.9347 14.168C51.41 14.6322 50.7137 14.8643 49.8458 14.8643H43.7457C43.9778 15.7321 44.3916 16.4637 44.9869 17.0591C45.5823 17.6444 46.4401 17.937 47.5602 17.937C48.0042 17.937 48.4432 17.8462 48.8771 17.6646C49.3211 17.4728 49.7348 17.2508 50.1183 16.9985C50.5118 16.7463 50.8549 16.5293 51.1476 16.3477C51.4402 16.1559 51.6622 16.0601 51.8136 16.0601C52.1062 16.0601 52.3182 16.166 52.4493 16.3779C52.5805 16.5798 52.6461 16.8118 52.6461 17.0742C52.6461 17.9925 52.4292 18.7998 51.9952 19.4961C51.5714 20.1823 51.0063 20.7524 50.2999 21.2065C49.6036 21.6606 48.8367 21.9987 47.9991 22.2207C47.1717 22.4528 46.3543 22.5688 45.547 22.5688C43.9627 22.5688 42.5651 22.2409 41.3541 21.585C40.1432 20.929 39.1946 20.0107 38.5084 18.8301C37.8323 17.6393 37.4943 16.2417 37.4943 14.6372C37.4943 12.9217 37.8222 11.4282 38.4781 10.1567C39.1442 8.88525 40.0978 7.90137 41.339 7.20508C42.5802 6.4987 44.0686 6.14551 45.8043 6.14551C47.0052 6.14551 48.1303 6.37256 49.1798 6.82666C50.2394 7.28076 51.0971 7.95182 51.753 8.83984C52.409 9.72786 52.7369 10.8228 52.7369 12.1245ZM43.4733 12.5332C43.4733 12.6442 43.4733 12.7552 43.4733 12.8662H45.0475C45.4309 12.8662 45.6933 12.7804 45.8346 12.6089C45.9759 12.4272 46.0465 12.1548 46.0465 11.7915C46.0465 11.5493 46.0162 11.2314 45.9557 10.8379C45.8951 10.4443 45.774 10.0911 45.5924 9.77832C45.4209 9.4655 45.1686 9.30908 44.8356 9.30908C44.5328 9.30908 44.2906 9.43522 44.109 9.6875C43.9274 9.92969 43.7911 10.2375 43.7003 10.6108C43.6095 10.9741 43.5489 11.3324 43.5187 11.6855C43.4884 12.0387 43.4733 12.3213 43.4733 12.5332Z" fill="#252847"/>
<path d="M29.918 13.1538V17.5737C29.918 18.159 29.9836 18.5526 30.1148 18.7544C30.2561 18.9562 30.6194 19.1177 31.2047 19.2388C31.7193 19.3397 32.128 19.4608 32.4307 19.6021C32.7435 19.7332 32.9 20.1167 32.9 20.7524C32.9 21.2065 32.7637 21.5496 32.4913 21.7817C32.2188 22.0138 31.8606 22.1299 31.4166 22.1299H23.4244C22.9905 22.1299 22.6322 22.0138 22.3497 21.7817C22.0671 21.5496 21.9258 21.2065 21.9258 20.7524C21.9258 20.3892 21.9914 20.1167 22.1226 19.9351C22.2639 19.7534 22.4203 19.592 22.5919 19.4507C22.7735 19.2993 22.9299 19.1076 23.0611 18.8755C23.2024 18.6333 23.273 18.27 23.273 17.7856V12.291C23.273 11.8369 23.1923 11.4989 23.0308 11.2769C22.8795 11.0448 22.7029 10.8631 22.501 10.7319C22.3093 10.6007 22.1327 10.4544 21.9713 10.293C21.8199 10.1214 21.7442 9.86914 21.7442 9.53613C21.7442 9.14258 21.8703 8.8348 22.1226 8.61279C22.385 8.3807 22.6827 8.19906 23.0157 8.06787L26.7999 6.56934C27.0421 6.46842 27.2893 6.37256 27.5416 6.28174C27.7938 6.19092 28.0562 6.14551 28.3287 6.14551C28.6819 6.14551 28.9442 6.28174 29.1158 6.5542C29.2873 6.81657 29.4034 7.12435 29.4639 7.47754C29.5346 7.82064 29.585 8.12337 29.6153 8.38574C29.6456 8.56738 29.6758 8.74902 29.7061 8.93066C29.7364 9.1123 29.7616 9.29395 29.7818 9.47559C30.0946 8.5472 30.574 7.76009 31.2198 7.11426C31.8757 6.46842 32.7789 6.14551 33.9293 6.14551C34.7466 6.14551 35.3874 6.34733 35.8516 6.75098C36.3259 7.15462 36.664 7.67432 36.8658 8.31006C37.0676 8.93571 37.1685 9.60173 37.1685 10.3081C37.1685 10.964 37.0827 11.5998 36.9112 12.2153C36.7396 12.8208 36.4369 13.3203 36.003 13.7139C35.5792 14.1074 34.9787 14.3042 34.2017 14.3042C33.3541 14.3042 32.7335 14.173 32.3399 13.9106C31.9564 13.6483 31.7092 13.3254 31.5982 12.9419C31.4872 12.5584 31.4267 12.175 31.4166 11.7915C31.4166 11.408 31.3863 11.0851 31.3257 10.8228C31.2652 10.5604 31.0836 10.4292 30.7808 10.4292C30.5084 10.4292 30.3116 10.6209 30.1905 11.0044C30.0694 11.3778 29.9937 11.7814 29.9634 12.2153C29.9332 12.6493 29.918 12.9621 29.918 13.1538Z" fill="#252847"/>
<path d="M20.2227 16.3779C20.2227 16.8219 20.1419 17.2508 19.9805 17.6646C19.8291 18.0783 19.6323 18.4668 19.3901 18.8301C18.7948 19.7383 18.0379 20.48 17.1196 21.0552C16.2114 21.6304 15.2275 22.0542 14.168 22.3267C13.1084 22.5991 12.0539 22.7354 11.0044 22.7354C8.78434 22.7354 6.84684 22.2712 5.19189 21.3428C3.54704 20.4043 2.27051 19.0975 1.3623 17.4224C0.454102 15.7472 0 13.8097 0 11.6099C0 10.1265 0.26237 8.7238 0.787109 7.40186C1.31185 6.06982 2.0485 4.88916 2.99707 3.85986C3.94564 2.83057 5.06071 2.02327 6.34229 1.43799C7.63395 0.852702 9.04167 0.560059 10.5654 0.560059C11.0397 0.560059 11.514 0.590332 11.9883 0.650879C12.4626 0.701335 12.9268 0.797201 13.3809 0.938477C13.6634 1.0293 13.946 1.13021 14.2285 1.24121C14.5111 1.35221 14.8037 1.40771 15.1064 1.40771C15.3789 1.40771 15.6211 1.34212 15.833 1.21094C16.055 1.06966 16.272 0.933431 16.4839 0.802246C16.6958 0.671061 16.9229 0.605469 17.165 0.605469C17.6797 0.605469 18.0177 0.766927 18.1792 1.08984C18.3407 1.41276 18.4769 1.77604 18.5879 2.17969L19.9502 6.90234C19.9906 7.03353 20.0107 7.17985 20.0107 7.34131C20.0107 7.81559 19.819 8.17383 19.4355 8.41602C19.0521 8.64811 18.6484 8.76416 18.2246 8.76416C17.7301 8.76416 17.3265 8.59261 17.0137 8.24951C16.7109 7.90641 16.4284 7.48258 16.166 6.97803C15.9036 6.46338 15.5959 5.95378 15.2427 5.44922C14.8996 4.94466 14.4455 4.52083 13.8804 4.17773C13.3254 3.83464 12.5887 3.66309 11.6704 3.66309C10.7723 3.66309 10.0457 3.90023 9.49072 4.37451C8.93571 4.8387 8.51188 5.43913 8.21924 6.17578C7.9266 6.90234 7.72477 7.67432 7.61377 8.4917C7.51286 9.30908 7.4624 10.0609 7.4624 10.7471C7.4624 11.9782 7.64404 13.1589 8.00732 14.2891C8.37061 15.4193 8.97103 16.3477 9.80859 17.0742C10.6462 17.7907 11.7764 18.1489 13.1992 18.1489C13.9561 18.1489 14.6423 17.9976 15.2578 17.6948C15.8734 17.382 16.4284 17.0238 16.9229 16.6201C17.4173 16.2064 17.8462 15.8481 18.2095 15.5454C18.5828 15.2326 18.8957 15.0762 19.1479 15.0762C19.5213 15.0762 19.7938 15.2124 19.9653 15.4849C20.1369 15.7472 20.2227 16.0449 20.2227 16.3779Z" fill="#252847"/>
</svg>
