<svg width="216" height="124" viewBox="0 0 216 124" fill="none" xmlns="http://www.w3.org/2000/svg">
<path d="M113.263 37.8408C117.185 37.8408 121.157 38.3381 125.176 39.3311H125.175C129.204 40.2746 132.924 41.7955 136.331 43.8936L136.965 44.2871C140.101 46.2912 142.66 48.8543 144.639 51.9737C146.769 55.2785 147.823 59.2348 147.823 63.8184C147.823 68.8239 146.004 72.6881 142.339 75.3321C138.735 77.9323 134.649 79.2324 130.099 79.2324C127.862 79.2324 125.827 78.9362 123.999 78.3418C124.578 78.4291 124.964 78.4074 125.082 78.2295C117.306 76.261 110.746 62.0901 119.521 57.751C128.296 53.4122 131.018 59.5166 132.23 58.1699C134.304 55.8642 124.16 52.3431 114.128 53.251C109.834 53.6398 105.934 55.1396 102.429 57.751C98.9248 60.3624 96.0889 63.9002 93.9213 68.3643C91.9246 72.4768 91.096 76.5551 91.436 80.5987C91.803 84.6554 93.1672 88.3435 95.5278 91.6631C97.9285 94.9687 101.155 97.6057 105.206 99.5733C107.313 100.596 109.612 101.328 112.102 101.769C114.606 102.249 117.079 102.346 119.521 102.061C122.003 101.761 125.496 101.396 127.511 100.134C133.233 97.2206 137.734 91.5282 141.629 89.253C141.661 89.2382 141.693 89.2233 141.725 89.209C142.516 88.8527 143.204 88.6409 143.753 88.6406C144.621 88.6406 145.384 88.8158 146.012 89.1992C146.644 89.5848 147.102 90.1592 147.396 90.8906L147.586 91.378C148.001 92.5161 148.21 93.6618 148.21 94.8115C148.21 99.5546 147.077 103.716 144.795 107.276C142.582 110.809 139.633 113.759 135.956 116.126L135.955 116.127C132.341 118.434 128.388 120.163 124.1 121.315C119.872 122.517 115.716 123.119 111.634 123.119C103.803 123.119 96.7378 121.445 90.4516 118.089L90.4467 118.087L90.687 117.647L90.4467 118.086C84.2145 114.678 79.2613 109.929 75.5952 103.847L75.5942 103.844C71.974 97.7503 70.1704 90.7207 70.1704 82.7715C70.1704 74.1581 71.9173 66.4644 75.4243 59.7041C78.8218 53.1548 83.5997 47.9529 89.7514 44.1065L90.351 43.7383C96.854 39.8006 104.498 37.841 113.263 37.8408ZM58.5991 94.8115C58.8408 94.8065 59.7636 94.785 60.6069 95.0742C61.5065 95.383 63.6468 96.5174 63.9008 99.2471C64.084 101.217 63.0337 102.534 62.8637 102.752C62.5283 103.183 62.1851 103.481 62.0092 103.627C61.6296 103.943 61.2231 104.205 60.9213 104.392C60.2743 104.791 59.4111 105.259 58.4096 105.773C54.7902 107.632 51.1365 109.939 47.4506 112.707C45.4581 114.204 43.4536 115.512 41.6381 116.153C40.7814 116.456 39.2649 116.872 37.5747 116.45C35.4642 115.923 34.0937 114.374 33.5307 112.657L33.478 112.491L33.4321 112.328C32.5142 108.914 34.7167 106.336 35.8725 105.22C37.2996 103.842 39.2895 102.563 41.5288 101.354C45.9844 98.9466 50.3631 97.0594 54.6616 95.7217C55.6799 95.4048 56.5994 95.1418 57.3256 94.9873C57.6383 94.9208 57.9978 94.8241 58.5991 94.8115ZM38.4243 65.2647C43.4885 65.2085 48.2431 65.5765 52.6704 66.3936C53.7191 66.5871 54.6549 66.7831 55.3696 66.9844C55.6774 67.0711 56.2193 67.2323 56.7573 67.501C56.9736 67.6091 57.6222 67.9402 58.2338 68.5889C58.8864 69.2812 60.2513 71.2807 59.2055 73.8145C58.4503 75.6436 56.9077 76.3196 56.6557 76.4336C56.1587 76.6585 55.7164 76.762 55.4926 76.8096C55.0095 76.9122 54.5271 76.957 54.1733 76.9815C53.4145 77.0339 52.433 77.0462 51.3071 77.0352C47.2385 76.9954 42.9313 77.3351 38.3803 78.0694C35.9201 78.4663 33.5366 78.6916 31.6313 78.4141C30.7321 78.2831 29.1964 77.9454 27.8969 76.7852C26.2744 75.3364 25.7826 73.3272 26.0835 71.5459L26.1147 71.374L26.1508 71.208C26.9281 67.759 30.077 66.5036 31.6196 66.0537C33.5241 65.4983 35.8794 65.2929 38.4243 65.2647ZM38.3051 26.7715C41.003 24.4864 44.2733 25.3812 45.7758 25.9512C47.6308 26.655 49.6355 27.9096 51.684 29.4199C55.7603 32.4253 59.3336 35.5826 62.3754 38.9014C63.096 39.6875 63.725 40.4069 64.1743 40.9981C64.3677 41.2527 64.7025 41.7083 64.9702 42.2471C65.0777 42.4635 65.3961 43.1184 65.4936 44.0049C65.5975 44.9506 65.4829 47.3691 63.1215 48.7617C61.4171 49.7669 59.7793 49.3772 59.5092 49.3164C58.9769 49.1966 58.5612 49.0129 58.354 48.916C57.9064 48.707 57.4949 48.4514 57.1977 48.2578C56.5605 47.8427 55.7694 47.262 54.8774 46.5752C51.6536 44.093 48.011 41.7701 43.936 39.6153C41.7328 38.4502 39.6941 37.1944 38.3403 35.8252C37.7014 35.1791 36.6787 33.9844 36.3403 32.2754C35.9178 30.1417 36.7361 28.2417 38.0493 27.001L38.1772 26.8828L38.3051 26.7715ZM81.3647 1.44143C84.8668 0.953418 87.1521 3.45812 88.1167 4.74319C89.3074 6.32977 90.3294 8.46161 91.2524 10.833C93.0893 15.5524 94.4201 20.1315 95.2153 24.5625C95.4036 25.612 95.5503 26.5562 95.6137 27.2959C95.641 27.6145 95.6806 28.1789 95.6186 28.7774C95.5937 29.0178 95.5122 29.741 95.1206 30.542C94.7027 31.3965 93.3123 33.3791 90.5717 33.293C88.5947 33.2308 87.4195 32.0266 87.2231 31.8301C86.8374 31.4441 86.5837 31.0667 86.4604 30.874C86.1941 30.458 85.983 30.0218 85.8354 29.6992C85.519 29.0077 85.1622 28.0935 84.7758 27.0362C83.3795 23.2146 81.5431 19.3039 79.2524 15.3037C78.014 13.1412 76.9638 10.9902 76.5522 9.1094C76.358 8.22181 76.1332 6.66593 76.7612 5.04104C77.5454 3.01233 79.2518 1.84425 81.0249 1.49807L81.1967 1.46682L81.3647 1.44143ZM129.476 0.842797C131.33 -0.294518 133.396 -0.188046 135.016 0.612329L135.171 0.69143L135.32 0.773462C138.4 2.5096 138.698 5.88645 138.685 7.49319C138.669 9.477 138.188 11.7918 137.483 14.2373C136.08 19.1036 134.361 23.5515 132.305 27.5567C131.818 28.505 131.363 29.3443 130.964 29.9707C130.793 30.2405 130.482 30.7132 130.07 31.1514C129.904 31.3273 129.4 31.8536 128.603 32.253C127.752 32.6789 125.444 33.4112 123.318 31.6807C121.784 30.4318 121.58 28.7611 121.543 28.4864C121.471 27.9454 121.498 27.4916 121.517 27.2637C121.558 26.7715 121.655 26.2971 121.733 25.9512C121.901 25.2094 122.171 24.2656 122.505 23.1905C123.713 19.3054 124.627 15.0832 125.232 10.5137C125.559 8.04314 126.028 5.69526 126.842 3.95022C127.226 3.12677 127.991 1.75364 129.476 0.842797Z" fill="#F37B67"/>
</svg>
