<svg width="48" height="49" viewBox="0 0 48 49" fill="none" xmlns="http://www.w3.org/2000/svg">
<path d="M29.5155 15.7827C30.6236 15.7827 31.743 15.9273 32.873 16.212L32.8741 16.2108C34.0196 16.485 35.0806 16.9277 36.0523 17.5389C37.0437 18.1479 37.8481 18.9473 38.4593 19.9315C39.0895 20.9317 39.3933 22.1168 39.3933 23.4616C39.3932 24.9687 38.8505 26.1788 37.7292 27.0059C36.6711 27.7862 35.4669 28.1773 34.1351 28.1775C33.3202 28.1775 32.5828 28.0372 31.9343 27.7505C29.5317 26.6331 28.8396 22.9693 31.2312 21.7595C33.6384 20.5427 34.3859 22.2537 34.7187 21.8771C35.288 21.2304 32.5046 20.2416 29.7523 20.4962C28.5741 20.6053 27.5039 21.027 26.5425 21.7595C25.581 22.4921 24.8017 23.4844 24.2069 24.7368C23.6593 25.8901 23.4329 27.0341 23.5261 28.1681C23.6268 29.3059 24.0012 30.3412 24.6487 31.2723C25.3074 32.1995 26.1926 32.9402 27.3042 33.492C27.8821 33.7789 28.5127 33.9838 29.1956 34.1073C29.8824 34.242 30.5614 34.2695 31.2312 34.1896C31.9121 34.1056 32.8709 34.0023 33.4237 33.6485C35.2875 32.6784 36.6797 30.6097 37.8816 30.3501C38.2331 30.3276 38.4613 30.2687 38.5999 30.189C38.6376 30.2077 38.675 30.2275 38.7112 30.2501C38.9667 30.4097 39.1437 30.6433 39.2503 30.9159C39.4141 31.3207 39.4987 31.7357 39.4987 32.1558C39.4986 33.5484 39.1727 34.7899 38.5027 35.8588C37.8644 36.8994 37.0141 37.7681 35.9597 38.462L35.9585 38.4631C34.9338 39.1319 33.8133 39.6316 32.6011 39.9653C31.4073 40.3122 30.2289 40.4887 29.0679 40.4888C26.8589 40.4887 24.853 40.0053 23.0644 39.029L23.0609 39.0266C21.2889 38.0359 19.8781 36.6534 18.8374 34.8883L18.8362 34.886C17.804 33.1096 17.2953 31.0674 17.2952 28.7786C17.2952 26.3101 17.7864 24.0895 18.78 22.1312C19.7738 20.1729 21.188 18.6242 23.0187 17.4966L23.3702 17.2883C25.1474 16.2794 27.2018 15.7827 29.5155 15.7827Z" fill="#F37B67"/>
<path d="M14.5167 32.1558C14.5833 32.1543 14.8363 32.1476 15.0675 32.2287C15.3143 32.3153 15.9011 32.6337 15.971 33.3991C16.0213 33.9519 15.7329 34.3213 15.6862 34.3825C15.5942 34.5033 15.5001 34.5874 15.4519 34.6284C15.3477 34.7169 15.2358 34.7902 15.153 34.8425C14.9755 34.9545 14.7387 35.0864 14.464 35.2306C13.4712 35.752 12.4692 36.3987 11.4581 37.1751C10.9115 37.5948 10.3612 37.962 9.8632 38.142C9.62811 38.2269 9.21137 38.3439 8.74757 38.2255C8.16876 38.0777 7.79235 37.6435 7.63781 37.1621L7.62375 37.1151L7.61085 37.0692C7.35898 36.1114 7.96404 35.3885 8.28117 35.0754C8.67271 34.6888 9.21835 34.3301 9.83273 33.9908C11.0553 33.3156 12.2568 32.7863 13.4362 32.411C13.7156 32.3221 13.9682 32.2485 14.1675 32.2052C14.2532 32.1865 14.3519 32.1593 14.5167 32.1558Z" fill="#F37B67"/>
<path d="M8.98078 23.8663C10.3703 23.8505 11.6754 23.9547 12.8902 24.1839C13.1777 24.2382 13.4348 24.2921 13.6308 24.3486C13.7153 24.3729 13.8642 24.4191 14.0116 24.4944C14.0715 24.525 14.2487 24.6178 14.4159 24.7991C14.5949 24.9932 14.9699 25.5541 14.6831 26.2648C14.476 26.7778 14.0528 26.9679 13.9835 27C13.847 27.0631 13.725 27.0925 13.6636 27.1059C13.5314 27.1345 13.3995 27.146 13.3027 27.1529C13.0946 27.1676 12.825 27.1713 12.5163 27.1682C11.4 27.157 10.2177 27.2528 8.96906 27.4587C8.29409 27.5701 7.64025 27.633 7.1175 27.5552C6.87077 27.5185 6.44867 27.4243 6.0921 27.0988C5.64692 26.6924 5.51268 26.1281 5.59523 25.6284L5.60343 25.5802L5.61281 25.5343C5.82605 24.5667 6.69073 24.2136 7.11398 24.0874C7.63646 23.9317 8.28269 23.8742 8.98078 23.8663Z" fill="#F37B67"/>
<path d="M8.94796 13.0689C9.68825 12.4278 10.5865 12.6785 10.9987 12.8384C11.5075 13.0358 12.0576 13.3876 12.6194 13.8112C13.7378 14.6542 14.7181 15.5399 15.5527 16.4708C15.7503 16.6912 15.9228 16.8932 16.046 17.059C16.0991 17.1304 16.1917 17.2584 16.2652 17.4095C16.2947 17.4703 16.3814 17.654 16.4081 17.9024C16.4366 18.1676 16.4057 18.8468 15.7577 19.2375C15.2903 19.5194 14.8407 19.4099 14.7663 19.3928C14.6202 19.3591 14.5056 19.307 14.4487 19.2798C14.3264 19.2214 14.2137 19.1505 14.1323 19.0963C13.9575 18.9799 13.7396 18.8162 13.4948 18.6235C12.6104 17.9273 11.6116 17.2752 10.4937 16.6708C9.88916 16.344 9.32997 15.9915 8.95851 15.6074C8.78321 15.4261 8.50174 15.0916 8.4089 14.6122C8.29302 14.0137 8.51738 13.4805 8.87765 13.1324L8.91281 13.0995L8.94796 13.0689Z" fill="#F37B67"/>
<path d="M20.7628 5.96282C21.7237 5.82592 22.3509 6.52808 22.6155 6.88857C22.9423 7.33368 23.2224 7.93243 23.4757 8.59775C23.9796 9.92154 24.345 11.2061 24.5632 12.449C24.6149 12.7433 24.6548 13.0085 24.6722 13.216C24.6797 13.3054 24.6903 13.4636 24.6734 13.6312C24.6665 13.6989 24.6447 13.902 24.5374 14.1264C24.4226 14.3662 24.0409 14.9221 23.2894 14.8981C22.7477 14.8807 22.4252 14.5434 22.3706 14.4875C22.2648 14.3793 22.1947 14.2734 22.1609 14.2194C22.0879 14.1028 22.0302 13.9804 21.9898 13.89C21.903 13.6961 21.8051 13.4395 21.6991 13.143C21.3161 12.0711 20.8123 10.9737 20.1839 9.8517C19.8441 9.24502 19.555 8.64077 19.4421 8.11311C19.3888 7.86403 19.3273 7.42765 19.4995 6.97209C19.7147 6.40294 20.1837 6.07519 20.6702 5.97811L20.7171 5.96987L20.7628 5.96282Z" fill="#F37B67"/>
<path d="M33.964 5.7946C34.4727 5.47561 35.0395 5.50539 35.4839 5.72991L35.5261 5.75226L35.5671 5.77461C36.4123 6.26165 36.494 7.20951 36.4905 7.66023C36.4862 8.21661 36.3545 8.86591 36.1612 9.55174C35.7764 10.9169 35.3038 12.1653 34.7398 13.2889C34.6063 13.5547 34.481 13.7896 34.3718 13.9653C34.3247 14.0409 34.2399 14.1741 34.1269 14.297C34.0814 14.3463 33.9426 14.4943 33.7237 14.6064C33.4899 14.7259 32.8571 14.9303 32.2741 14.4452C31.8531 14.0948 31.7967 13.6257 31.7866 13.5489C31.7668 13.3975 31.7745 13.2705 31.7796 13.2065C31.7907 13.0685 31.8179 12.9354 31.8394 12.8384C31.8855 12.6303 31.9598 12.3648 32.0515 12.0632C32.3828 10.9735 32.6331 9.78885 32.7991 8.50718C32.8889 7.81422 33.0177 7.15572 33.2409 6.66625C33.3463 6.43523 33.5565 6.05012 33.964 5.7946Z" fill="#F37B67"/>
</svg>
