<svg xmlns="http://www.w3.org/2000/svg" width="167" height="92" viewBox="0 0 167 92" fill="none"><path d="M135.36 59.8575C137.057 59.8575 138.427 60.1345 139.471 60.6884C140.548 61.2423 141.348 61.8125 141.87 62.399C142.425 62.9529 142.735 63.2951 142.8 63.4254H143.192V60.3463H151.562V86.25H143.192V83.1709H142.8C142.735 83.3012 142.425 83.6596 141.87 84.2461C141.348 84.8326 140.548 85.4028 139.471 85.9568C138.427 86.4781 137.057 86.7388 135.36 86.7388C133.467 86.7388 131.819 86.3641 130.416 85.6146C129.013 84.8326 127.838 83.8063 126.892 82.5355C125.945 81.2322 125.244 79.7822 124.787 78.1856C124.33 76.5891 124.102 74.9599 124.102 73.2981C124.102 71.6364 124.33 70.0072 124.787 68.4106C125.244 66.8141 125.945 65.3804 126.892 64.1096C127.838 62.8063 129.013 61.7799 130.416 61.0305C131.819 60.2485 133.467 59.8575 135.36 59.8575ZM138.003 66.5534C136.796 66.5534 135.784 66.8955 134.968 67.5798C134.152 68.2314 133.549 69.0786 133.157 70.1213C132.766 71.1313 132.57 72.1903 132.57 73.2981C132.57 74.406 132.766 75.4812 133.157 76.5239C133.549 77.534 134.152 78.3811 134.968 79.0654C135.784 79.7171 136.796 80.0429 138.003 80.0429C139.21 80.0429 140.206 79.7171 140.989 79.0654C141.805 78.3811 142.408 77.534 142.8 76.5239C143.224 75.4812 143.436 74.406 143.436 73.2981C143.436 72.1903 143.224 71.1313 142.8 70.1213C142.408 69.0786 141.805 68.2314 140.989 67.5798C140.206 66.8955 139.21 66.5534 138.003 66.5534Z" fill="black"></path><path d="M96.5255 86.25V49.105H104.896V64.0119H105.14C105.467 63.4906 105.907 62.9041 106.462 62.2524C107.049 61.6007 107.816 61.0468 108.763 60.5906C109.742 60.1019 110.949 59.8575 112.385 59.8575C114.473 59.8575 116.137 60.33 117.377 61.2749C118.65 62.2198 119.564 63.4254 120.119 64.8916C120.673 66.3253 120.951 67.8078 120.951 69.3393V86.25H112.581V70.9033C112.581 69.7954 112.287 68.8179 111.699 67.9708C111.112 67.091 110.149 66.6511 108.812 66.6511C107.343 66.6511 106.315 67.1399 105.728 68.1174C105.173 69.0623 104.896 70.105 104.896 71.2454V86.25H96.5255Z" fill="black"></path><path d="M88.3312 86.7388C86.1123 86.7388 84.3501 86.3966 83.0448 85.7124C81.7722 85.0281 80.8422 84.181 80.2548 83.1709C79.6674 82.1282 79.2921 81.0856 79.129 80.0429C78.9658 78.9676 78.8842 78.0553 78.8842 77.3059V66.9933H74.5768V60.3463H78.8842V53.9436H87.2544V60.3463H92.5408V66.9933H87.2544V77.0615C87.2544 78.039 87.5154 78.821 88.0376 79.4075C88.5923 79.9614 89.5223 80.2384 90.8276 80.2384C91.3824 80.2384 91.8718 80.2058 92.2961 80.1406C92.7203 80.0429 92.9324 79.994 92.9324 79.994V86.25C92.9324 86.25 92.4592 86.3315 91.5129 86.4944C90.5992 86.6573 89.5386 86.7388 88.3312 86.7388Z" fill="black"></path><path d="M58.9466 86.7388C56.0097 86.7388 53.5133 86.1197 51.4575 84.8815C49.4017 83.6433 47.819 81.9979 46.7095 79.9451C45.6327 77.8924 45.0942 75.6767 45.0942 73.2981C45.0942 70.9195 45.6327 68.7039 46.7095 66.6511C47.819 64.5984 49.4017 62.9529 51.4575 61.7148C53.5133 60.4766 56.0097 59.8575 58.9466 59.8575C61.9161 59.8575 64.4288 60.4766 66.4846 61.7148C68.5405 62.9529 70.1068 64.5984 71.1837 66.6511C72.2932 68.7039 72.8479 70.9195 72.8479 73.2981C72.8479 75.6767 72.2932 77.8924 71.1837 79.9451C70.1068 81.9979 68.5405 83.6433 66.4846 84.8815C64.4288 86.1197 61.9161 86.7388 58.9466 86.7388ZM58.9466 79.994C60.6761 79.994 62.014 79.3423 62.9604 78.039C63.9393 76.7031 64.4288 75.1228 64.4288 73.2981C64.4288 71.4735 63.9393 69.9095 62.9604 68.6061C62.014 67.2702 60.6761 66.6023 58.9466 66.6023C57.2497 66.6023 55.9118 67.2702 54.9328 68.6061C53.9539 69.9095 53.4644 71.4735 53.4644 73.2981C53.4644 75.1228 53.9539 76.7031 54.9328 78.039C55.9118 79.3423 57.2497 79.994 58.9466 79.994Z" fill="black"></path><path d="M30.8029 86.7388C29.1386 86.7388 27.7681 86.4618 26.6912 85.9079C25.6144 85.354 24.8149 84.8001 24.2928 84.2461C23.7706 83.6596 23.4769 83.3012 23.4117 83.1709H23.0201V86.25H14.6499V49.105H23.0201V63.4254H23.4117C23.4769 63.2951 23.7706 62.9366 24.2928 62.3501C24.8149 61.7636 25.6144 61.2097 26.6912 60.6884C27.7681 60.1345 29.1386 59.8575 30.8029 59.8575C32.7282 59.8575 34.3924 60.2485 35.7956 61.0305C37.1988 61.7799 38.3572 62.8063 39.2709 64.1096C40.2173 65.3804 40.9189 66.8141 41.3757 68.4106C41.8652 70.0072 42.1099 71.6364 42.1099 73.2981C42.1099 74.9599 41.8652 76.5891 41.3757 78.1856C40.9189 79.7822 40.2173 81.2322 39.2709 82.5355C38.3572 83.8063 37.1988 84.8326 35.7956 85.6146C34.3924 86.3641 32.7282 86.7388 30.8029 86.7388ZM28.2086 80.0429C29.416 80.0429 30.4276 79.7171 31.2434 79.0654C32.0592 78.3811 32.6629 77.534 33.0545 76.5239C33.4461 75.4812 33.6419 74.406 33.6419 73.2981C33.6419 72.1903 33.4461 71.1313 33.0545 70.1213C32.6629 69.0786 32.0592 68.2314 31.2434 67.5798C30.4276 66.8955 29.416 66.5534 28.2086 66.5534C27.0012 66.5534 25.9896 66.8955 25.1738 67.5798C24.358 68.2314 23.7543 69.0786 23.3627 70.1213C22.9712 71.1313 22.7754 72.1903 22.7754 73.2981C22.7754 74.406 22.9712 75.4812 23.3627 76.5239C23.7543 77.534 24.358 78.3811 25.1738 79.0654C25.9896 79.7171 27.0012 80.0429 28.2086 80.0429Z" fill="black"></path><path d="M123.558 45.6263V40.25H148.767V45.6263H123.558Z" fill="black"></path><path d="M92.2597 40.25V14.3463H100.63V18.0119H100.875C101.201 17.4906 101.641 16.9041 102.196 16.2524C102.784 15.6007 103.55 15.0468 104.497 14.5906C105.476 14.1019 106.683 13.8575 108.119 13.8575C110.207 13.8575 111.872 14.33 113.112 15.2749C114.384 16.2198 115.298 17.4254 115.853 18.8916C116.408 20.3253 116.685 21.8078 116.685 23.3393V40.25H108.315V24.9033C108.315 23.7954 108.021 22.8179 107.434 21.9708C106.846 21.091 105.884 20.6511 104.546 20.6511C103.077 20.6511 102.049 21.1399 101.462 22.1174C100.907 23.0623 100.63 24.105 100.63 25.2454V40.25H92.2597Z" fill="black"></path><path d="M72.0445 13.8575C73.7413 13.8575 75.1119 14.1345 76.1561 14.6884C77.233 15.2423 78.0325 15.8125 78.5546 16.399C79.1093 16.9529 79.4193 17.2951 79.4846 17.4254H79.8762V14.3463H88.2464V40.25H79.8762V37.1709H79.4846C79.4193 37.3012 79.1093 37.6596 78.5546 38.2461C78.0325 38.8326 77.233 39.4028 76.1561 39.9568C75.1119 40.4781 73.7413 40.7388 72.0445 40.7388C70.1518 40.7388 68.5039 40.3641 67.1007 39.6146C65.6975 38.8326 64.5228 37.8063 63.5764 36.5355C62.6301 35.2322 61.9285 33.7822 61.4716 32.1856C61.0148 30.5891 60.7864 28.9599 60.7864 27.2981C60.7864 25.6364 61.0148 24.0072 61.4716 22.4106C61.9285 20.8141 62.6301 19.3804 63.5764 18.1096C64.5228 16.8063 65.6975 15.7799 67.1007 15.0305C68.5039 14.2485 70.1518 13.8575 72.0445 13.8575ZM74.6877 20.5534C73.4803 20.5534 72.4687 20.8955 71.6529 21.5798C70.8371 22.2314 70.2334 23.0786 69.8418 24.1213C69.4502 25.1313 69.2544 26.1903 69.2544 27.2981C69.2544 28.406 69.4502 29.4812 69.8418 30.5239C70.2334 31.534 70.8371 32.3811 71.6529 33.0654C72.4687 33.7171 73.4803 34.0429 74.6877 34.0429C75.8951 34.0429 76.8904 33.7171 77.6735 33.0654C78.4893 32.3811 79.093 31.534 79.4846 30.5239C79.9088 29.4812 80.1209 28.406 80.1209 27.2981C80.1209 26.1903 79.9088 25.1313 79.4846 24.1213C79.093 23.0786 78.4893 22.2314 77.6735 21.5798C76.8904 20.8955 75.8951 20.5534 74.6877 20.5534Z" fill="black"></path><path d="M37.1769 49.7806C36.2632 49.7806 35.5289 49.7481 34.9742 49.6829C34.4521 49.6177 34.191 49.5851 34.191 49.5851V42.9381C34.191 42.9381 34.4031 42.9544 34.8273 42.987C35.2516 43.0196 35.79 43.0359 36.4426 43.0359C37.8784 43.0359 39.0695 42.8567 40.0159 42.4983C40.9622 42.1724 41.778 41.4882 42.4633 40.4455L33.0163 14.3463H41.3864L46.8686 30.9638L52.204 14.3463H60.5252L51.5187 38.8815C50.6376 41.3253 49.5934 43.3454 48.386 44.942C47.2113 46.5712 45.7265 47.7768 43.9317 48.5588C42.137 49.3733 39.8853 49.7806 37.1769 49.7806Z" fill="black"></path><path d="M14.1605 40.25V14.3463H22.4327V18.2563H22.7264C22.9875 17.572 23.3627 16.9041 23.8522 16.2524C24.3743 15.5681 25.0922 14.9979 26.0059 14.5418C26.9196 14.0856 28.127 13.8575 29.6281 13.8575C30.346 13.8575 30.9171 13.9064 31.3413 14.0041C31.7655 14.1019 31.9776 14.1508 31.9776 14.1508V22.4106C31.9776 22.4106 31.7492 22.3618 31.2924 22.264C30.8355 22.1663 30.1992 22.1174 29.3834 22.1174C27.0665 22.1174 25.337 22.7365 24.1949 23.9746C23.0854 25.2128 22.5306 27.233 22.5306 30.0351V40.25H14.1605Z" fill="black"></path></svg>